/vscmnt/brussel_pixiu_data/_data_brussel/112/vsc11236/PredSimResults/SUBJ07mtu3D/SUBJ07mtu3D_12829349.mot
version=1
nRows=8
nColumns=50
inDegrees=yes
endheader
                time	         pelvis_tilt	         pelvis_list	     pelvis_rotation	           pelvis_tx	           pelvis_ty	           pelvis_tz	       hip_flexion_r	     hip_adduction_r	      hip_rotation_r	        knee_angle_r	       ankle_angle_r	         mtp_angle_r	       hip_flexion_l	     hip_adduction_l	      hip_rotation_l	        knee_angle_l	       ankle_angle_l	         mtp_angle_l	    lumbar_extension	      lumbar_bending	     lumbar_rotation	 ercspn_r/activation	 intobl_r/activation	 extobl_r/activation	    abd_r/activation	    add_r/activation	hamstrings_r/activation	bifemsh_r/activation	glut_max_r/activation	iliopsoas_r/activation	rect_fem_r/activation	  vasti_r/activation	gastroc_r/activation	 soleus_r/activation	tib_ant_r/activation	 ercspn_l/activation	 intobl_l/activation	 extobl_l/activation	    abd_l/activation	    add_l/activation	hamstrings_l/activation	bifemsh_l/activation	glut_max_l/activation	iliopsoas_l/activation	rect_fem_l/activation	  vasti_l/activation	gastroc_l/activation	 soleus_l/activation	tib_ant_l/activation	
          0.00000000	         -5.78176614	         -3.94388884	          8.18274912	          0.00000000	          0.84810136	         -0.01069470	         29.65025679	          0.58656786	         -5.54183985	         -2.78621311	          7.42593010	          0.24720390	        -13.07810461	         -4.57495967	          4.01086765	         -7.86419834	          8.90966832	         26.57967130	         -6.94080306	          2.23804687	         -3.39485214	          0.09543655	          0.17494606	          0.02627399	          0.01315449	          0.11302001	          0.04170279	          0.19947402	          0.01000111	          0.06511787	          0.01000159	          0.01000063	          0.01177470	          0.01000020	          0.26948024	          0.04058401	          0.01000015	          0.01000040	          0.03441474	          0.02497099	          0.02306440	          0.13208346	          0.02781378	          0.32165805	          0.01000179	          0.01000051	          0.24876778	          0.24636766	          0.01826153	
          0.01115325	         -5.85072332	         -3.78867635	          8.02850505	          0.01587538	          0.84631856	         -0.01044815	         29.66714037	          0.76113313	         -4.62306890	         -4.42491836	          7.08748257	          0.24402176	        -13.12106612	         -4.39894238	          3.43118803	         -9.73472459	          8.22841451	         28.25883984	         -6.75493704	          2.65778199	         -3.52654982	          0.08047698	          0.14758734	          0.02215558	          0.01109259	          0.14630663	          0.04524149	          0.16820725	          0.06098110	          0.05491069	          0.01000072	          0.01000024	          0.02148028	          0.01682613	          0.27503355	          0.08439565	          0.01000018	          0.01000221	          0.02902025	          0.05677990	          0.02020099	          0.11137952	          0.02345399	          0.32615410	          0.01000074	          0.01006420	          0.20977355	          0.22901855	          0.01539904	
          0.02230650	         -5.90399571	         -3.63907617	          7.82036729	          0.03200076	          0.84468855	         -0.01015783	         29.51396062	          0.91033604	         -3.75023189	         -5.97164126	          6.69940819	          0.23602189	        -12.99858829	         -4.21922065	          2.80368317	        -11.96543566	          7.44568696	         29.84465898	         -6.55675189	          3.10238379	         -3.63250090	          0.08114180	          0.12445326	          0.01868272	          0.08007169	          0.14399307	          0.05246102	          0.14184161	          0.06867046	          0.04630348	          0.01000030	          0.01000008	          0.01811331	          0.01418867	          0.32148818	          0.10843506	          0.01000008	          0.01000039	          0.02447134	          0.04787994	          0.01703514	          0.09392092	          0.01977759	          0.31419009	          0.01000129	          0.01000075	          0.17689162	          0.19971023	          0.01298526	
          0.03345975	         -5.94327165	         -3.48875744	          7.56099045	          0.04816795	          0.84340514	         -0.00978107	         29.23686699	          1.07364218	         -2.96810025	         -7.29621100	          6.21776667	          0.22117655	        -12.63252781	         -4.03612531	          2.13904876	        -14.65174472	          6.52095418	         31.22855840	         -6.36807177	          3.55353032	         -3.71300096	          0.08893382	          0.10494530	          0.01575424	          0.12652355	          0.16402944	          0.04971810	          0.11960826	          0.10129720	          0.03904544	          0.01000045	          0.01000025	          0.01527415	          0.01196470	          0.34242877	          0.14746638	          0.01000011	          0.01000031	          0.02063547	          0.05484537	          0.01664574	          0.07919897	          0.01667747	          0.29719217	          0.01000068	          0.01000159	          0.14916392	          0.16840577	          0.01094984	
          0.04461300	         -5.96854624	         -3.34454969	          7.25586702	          0.06420945	          0.84262613	         -0.00932533	         28.90981850	          1.25659834	         -2.28051301	         -8.55498464	          5.82391559	          0.20735414	        -11.97417258	         -3.86423436	          1.42959344	        -17.83825363	          5.44525809	         32.19848283	         -6.20093856	          4.01487289	         -3.76833228	          0.08637416	          0.08849520	          0.01328481	          0.15265993	          0.17143806	          0.04596862	          0.10085994	          0.11387082	          0.03292510	          0.01000042	          0.03361618	          0.01288005	          0.01008942	          0.36339966	          0.17375550	          0.01000012	          0.01000035	          0.01740087	          0.06652074	          0.01403912	          0.06678475	          0.01406329	          0.26553161	          0.01000033	          0.01000015	          0.12578252	          0.14200824	          0.01000006	
          0.05576625	         -5.98055012	         -3.20351763	          6.90661409	          0.08003022	          0.84245817	         -0.00880518	         28.54323407	          1.44743396	         -1.69010077	         -9.75873773	          5.55911352	          0.19236213	        -11.00861600	         -3.71250639	          0.66128505	        -21.51425345	          4.20371205	         32.51859703	         -6.06096221	          4.47958084	         -3.79783827	          0.07283830	          0.07462363	          0.01120250	          0.16124767	          0.14800421	          0.04794070	          0.08505045	          0.10465067	          0.02776412	          0.01000039	          0.09638991	          0.01086137	          0.01000080	          0.36921193	          0.18860288	          0.01000013	          0.01000028	          0.01467329	          0.07599487	          0.01183982	          0.05631663	          0.01185889	          0.22390976	          0.01000027	          0.01000008	          0.10606616	          0.11974850	          0.01000004	
          0.06691950	         -5.98202393	         -3.05700848	          6.51290442	          0.09556884	          0.84299658	         -0.00824404	         28.08826669	          1.63247779	         -1.18035196	        -10.81044340	          5.45339261	          0.17762449	         -9.74681920	         -3.58533974	         -0.16239138	        -25.59351908	          2.66054385	         32.13630679	         -5.95253982	          4.93614926	         -3.80080434	          0.06142105	          0.06292643	          0.01000020	          0.16197848	          0.12480473	          0.04866127	          0.07171911	          0.09552399	          0.02341212	          0.01000041	          0.14632268	          0.01000057	          0.01000080	          0.36490709	          0.19261142	          0.01000007	          0.01000030	          0.01237326	          0.09291994	          0.01000093	          0.04749012	          0.01000004	          0.18881202	          0.01000019	          0.01000003	          0.08944033	          0.10097797	          0.01600992	
          0.07807275	         -5.97537291	         -2.89344135	          6.07510779	          0.11078679	          0.84424494	         -0.00766878	         27.50321608	          1.79754203	         -0.71625143	        -11.62655462	          5.49543366	          0.16763536	         -8.22537709	         -3.48209055	         -1.03322823	        -29.95866033	          0.84922681	         30.81909571	         -5.87918225	          5.37107986	         -3.77597127	          0.05179336	          0.05306275	          0.01000052	          0.17280290	          0.10524168	          0.04707842	          0.06047750	          0.08055101	          0.01974230	          0.01000031	          0.15103538	          0.01185993	          0.01223186	          0.34828315	          0.19717275	          0.02340730	          0.01000042	          0.01043376	          0.08021676	          0.01185989	          0.04004662	          0.01000004	          0.15921583	          0.01000019	          0.01000006	          0.07542059	          0.08514971	          0.07333998	
